<svg width="0" height="0" class="hidden">
  <symbol xmlns="http://www.w3.org/2000/svg" viewBox="0 0 8 4" id="icon-down">
    <path fill="#DC414C" fill-rule="evenodd" d="M0 0l4 4 4-4z"></path>
  </symbol>
  <symbol xmlns="http://www.w3.org/2000/svg" viewBox="0 0 20 20" id="icon-facebook">
    <path fill="#178FF5" d="M18.896 0H1.104C.494 0 0 .494 0 1.104v17.793C0 19.506.494 20 1.104 20h9.58v-7.745H8.076V9.237h2.606V7.01c0-2.583 1.578-3.99 3.883-3.99 1.104 0 2.052.082 2.329.119v2.7h-1.598c-1.254 0-1.496.597-1.496 1.47v1.928h2.989l-.39 3.018h-2.6V20h5.098c.608 0 1.102-.494 1.102-1.104V1.104C20 .494 19.506 0 18.896 0z"></path>
  </symbol>
  <symbol fill="none" xmlns="http://www.w3.org/2000/svg" viewBox="0 0 48 48" id="icon-instagram">
    <circle cx="24" cy="24" r="20" fill="#C13584"></circle>
    <path d="M24 14.1622C27.2041 14.1622 27.5837 14.1744 28.849 14.2321C30.019 14.2855 30.6544 14.481 31.0773 14.6453C31.6374 14.863 32.0371 15.123 32.457 15.5429C32.877 15.9629 33.137 16.3626 33.3547 16.9227C33.519 17.3456 33.7145 17.981 33.7679 19.151C33.8256 20.4163 33.8379 20.7959 33.8379 23.9999C33.8379 27.2041 33.8256 27.5836 33.7679 28.849C33.7145 30.019 33.519 30.6544 33.3547 31.0772C33.137 31.6373 32.877 32.0371 32.4571 32.457C32.0371 32.8769 31.6374 33.1369 31.0773 33.3546C30.6544 33.519 30.019 33.7145 28.849 33.7678C27.5839 33.8255 27.2044 33.8378 24 33.8378C20.7956 33.8378 20.4162 33.8255 19.151 33.7678C17.981 33.7145 17.3456 33.519 16.9228 33.3546C16.3626 33.1369 15.9629 32.8769 15.543 32.457C15.1231 32.0371 14.863 31.6373 14.6453 31.0772C14.481 30.6544 14.2855 30.019 14.2321 28.849C14.1744 27.5836 14.1622 27.2041 14.1622 23.9999C14.1622 20.7959 14.1744 20.4163 14.2321 19.151C14.2855 17.981 14.481 17.3456 14.6453 16.9227C14.863 16.3626 15.123 15.9629 15.543 15.543C15.9629 15.123 16.3626 14.863 16.9228 14.6453C17.3456 14.481 17.981 14.2855 19.151 14.2321C20.4163 14.1744 20.7959 14.1622 24 14.1622ZM24 12C20.741 12 20.3324 12.0138 19.0524 12.0722C17.7752 12.1305 16.9028 12.3334 16.1396 12.63C15.3504 12.9366 14.6812 13.347 14.0141 14.0141C13.347 14.6812 12.9366 15.3504 12.63 16.1395C12.3334 16.9028 12.1305 17.7752 12.0722 19.0524C12.0138 20.3323 12 20.741 12 23.9999C12 27.259 12.0138 27.6676 12.0722 28.9475C12.1305 30.2248 12.3334 31.0971 12.63 31.8604C12.9366 32.6495 13.347 33.3187 14.0141 33.9859C14.6812 34.653 15.3504 35.0633 16.1396 35.3699C16.9028 35.6666 17.7752 35.8695 19.0524 35.9277C20.3324 35.9861 20.741 35.9999 24 35.9999C27.259 35.9999 27.6677 35.9861 28.9476 35.9277C30.2249 35.8695 31.0972 35.6666 31.8605 35.3699C32.6496 35.0633 33.3188 34.653 33.9859 33.9859C34.6531 33.3187 35.0634 32.6495 35.3701 31.8604C35.6667 31.0971 35.8695 30.2248 35.9278 28.9475C35.9862 27.6676 36 27.259 36 23.9999C36 20.741 35.9862 20.3323 35.9278 19.0524C35.8695 17.7752 35.6667 16.9028 35.3701 16.1395C35.0634 15.3504 34.6531 14.6812 33.9859 14.0141C33.3188 13.347 32.6496 12.9366 31.8605 12.63C31.0972 12.3334 30.2249 12.1305 28.9476 12.0722C27.6677 12.0138 27.259 12 24 12Z" fill="white"></path>
    <path d="M24.0056 17.8434C20.6023 17.8434 17.8434 20.6023 17.8434 24.0055C17.8434 27.4088 20.6023 30.1677 24.0056 30.1677C27.4089 30.1677 30.1677 27.4088 30.1677 24.0055C30.1677 20.6023 27.4089 17.8434 24.0056 17.8434ZM24.0056 28.0055C21.7964 28.0055 20.0056 26.2147 20.0056 24.0055C20.0056 21.7964 21.7964 20.0056 24.0056 20.0056C26.2147 20.0056 28.0056 21.7964 28.0056 24.0055C28.0056 26.2147 26.2147 28.0055 24.0056 28.0055Z" fill="white"></path>
    <path d="M31.8508 17.5962C31.8508 18.3914 31.2061 19.0361 30.4108 19.0361C29.6155 19.0361 28.9708 18.3914 28.9708 17.5962C28.9708 16.8009 29.6155 16.1561 30.4108 16.1561C31.2061 16.1561 31.8508 16.8009 31.8508 17.5962Z" fill="white"></path>
  </symbol>
  <symbol xmlns="http://www.w3.org/2000/svg" viewBox="0 0 8 4" id="icon-up">
    <path fill="#1EB589" fill-rule="evenodd" d="M0 4l4-4 4 4z"></path>
  </symbol>
  <symbol xmlns="http://www.w3.org/2000/svg" viewBox="0 0 20 17" id="icon-twitter">
    <path fill="#1DA1F2" d="M20 1.924a8.192 8.192 0 01-2.357.646A4.11 4.11 0 0019.448.3a8.22 8.22 0 01-2.606.996A4.096 4.096 0 0013.847 0c-2.65 0-4.596 2.472-3.998 5.037A11.648 11.648 0 011.392.752a4.109 4.109 0 001.27 5.478 4.086 4.086 0 01-1.858-.513C.76 7.616 2.122 9.395 4.095 9.79a4.113 4.113 0 01-1.853.07 4.106 4.106 0 003.833 2.849A8.25 8.25 0 010 14.41a11.616 11.616 0 006.29 1.843c7.618 0 11.922-6.434 11.663-12.205A8.354 8.354 0 0020 1.924z"></path>
  </symbol>
  <symbol xmlns="http://www.w3.org/2000/svg" viewBox="0 0 20 20" id="icon-youtube">
    <path fill="#C4032B" d="M10 0C4.478 0 0 4.478 0 10c0 5.523 4.478 10 10 10 5.523 0 10-4.477 10-10 0-5.522-4.477-10-10-10zm3.7 14.077c-1.75.12-5.652.12-7.402 0-1.896-.13-2.117-1.059-2.131-4.077.014-3.024.237-3.947 2.131-4.077 1.75-.12 5.652-.12 7.403 0 1.897.13 2.117 1.059 2.132 4.077-.015 3.024-.237 3.947-2.132 4.077zM8.334 8.048l4.098 1.949-4.098 1.955V8.048z"></path>
  </symbol>
</svg>